# xmcd
# 
# Track frame offsets:
#     150
#     25422
#     47902
#     76828
#     96005
#     119847
#     132903
#     155724
#     172791
#     192355
#     215330
#     238258
#     252460
#     272308
#     287323
#     305177
#     314325
# 
# Disc length: 4417
# 
# Revision: 11
# Processed by: cddbd v1.5.2PL0 Copyright (c) Steve Scherf et al.
# Submitted via: fre:ac v1.0.31
# 
DISCID=f3113f11
DTITLE=Tom Waits - Glitter And Doom Disc 1
DYEAR=2009
DGENRE=Rock/Pop
TTITLE0=Lucinda - Ain't Goin' Down To The Well No Mo'
TTITLE1=Singapore
TTITLE2=Get Behind The Mule
TTITLE3=Fannin Street
TTITLE4=Dirt In The Ground
TTITLE5=Such A Scream
TTITLE6=Live Circus
TTITLE7=Goin' Out West
TTITLE8=Falling Down
TTITLE9=The Part You Throw Away
TTITLE10=Trampled Rose
TTITLE11=Metropolitan Glide
TTITLE12=I'll Shoot The Moon
TTITLE13=Green Grass
TTITLE14=Make It Rain
TTITLE15=Story
TTITLE16=Lucky Day
EXTD=
EXTT0=
EXTT1=
EXTT2=
EXTT3=
EXTT4=
EXTT5=
EXTT6=
EXTT7=
EXTT8=
EXTT9=
EXTT10=
EXTT11=
EXTT12=
EXTT13=
EXTT14=
EXTT15=
EXTT16=
PLAYORDER=
